<?xml version="1.0" encoding="UTF-8"?>
<svg id="Layer_2" data-name="Layer 2" xmlns="http://www.w3.org/2000/svg" viewBox="0 0 525 525">
  <g id="_Ñëîé_1" data-name="Ñëîé 1">
    <g>
      <path d="M262.5,525c-70.12,0-136.04-27.31-185.62-76.89S0,332.62,0,262.5,27.31,126.47,76.89,76.89C126.47,27.31,192.39,0,262.5,0s136.04,27.31,185.62,76.89c49.58,49.58,76.89,115.5,76.89,185.62s-27.31,136.04-76.89,185.62c-49.58,49.58-115.5,76.89-185.62,76.89ZM262.5,21.19c-133.06,0-241.31,108.25-241.31,241.31s108.25,241.31,241.31,241.31,241.31-108.25,241.31-241.31S395.56,21.19,262.5,21.19Z"/>
      <path d="M313.61,247.11c-2.29,0-4.48-.5-6.58-1.49-2.09-.99-3.84-2.34-5.23-4.03l-39.3-47.07-39.3,47.07c-1.49,1.79-3.29,3.14-5.38,4.03-2.09.9-4.29,1.34-6.58,1.34s-4.33-.45-6.43-1.34c-2.09-.9-3.84-2.24-5.23-4.03l-39.3-47.52-41.84,50.06-23.61-19.88,53.65-63.51c1.69-1.99,3.53-3.41,5.53-4.26,1.99-.85,4.08-1.27,6.28-1.27,2.39,0,4.63.45,6.72,1.35,2.09.9,3.78,2.29,5.08,4.18l39.3,46.92,39.3-46.92c1.49-1.69,3.26-2.99,5.31-3.89,2.04-.9,4.21-1.35,6.5-1.35s4.33.45,6.43,1.35c2.09.9,3.89,2.19,5.38,3.89l39.3,46.92,39.3-46.92c1.49-1.89,3.26-3.29,5.31-4.18,2.04-.9,4.21-1.35,6.5-1.35,4.68,0,8.62,1.85,11.81,5.53l53.65,63.51-23.61,19.88-41.84-50.06-39.3,47.52c-1.4,1.99-3.12,3.41-5.16,4.26-2.04.85-4.26,1.27-6.65,1.27ZM313.61,369.8c-2.29,0-4.46-.5-6.5-1.49-2.04-1-3.81-2.34-5.31-4.03l-39.3-47.37-39.3,47.37c-1.49,1.79-3.29,3.11-5.38,3.96-2.09.85-4.24,1.27-6.43,1.27s-4.46-.42-6.5-1.27c-2.04-.85-3.81-2.17-5.31-3.96l-39.3-47.37-41.84,49.61-23.61-19.43,53.65-63.96c1.29-1.69,3.04-3.04,5.23-4.03,2.19-.99,4.38-1.49,6.58-1.49,2.39,0,4.61.52,6.65,1.57,2.04,1.05,3.76,2.37,5.16,3.96l39.3,47.37,39.3-47.37c1.49-1.69,3.26-2.99,5.31-3.89,2.04-.9,4.21-1.34,6.5-1.34s4.33.45,6.43,1.34c2.09.9,3.89,2.19,5.38,3.89l39.3,47.37,39.3-47.37c1.39-1.69,3.14-3.04,5.23-4.03,2.09-.99,4.28-1.49,6.58-1.49s4.61.5,6.65,1.49c2.04,1,3.76,2.34,5.16,4.03l53.65,63.96-23.61,19.43-41.84-49.61-39.3,47.37c-1.49,1.69-3.24,3.04-5.23,4.03-1.99.99-4.18,1.49-6.58,1.49Z"/>
    </g>
  </g>
</svg>