<?xml version="1.0" encoding="UTF-8"?>
<svg id="Layer_2" data-name="Layer 2" xmlns="http://www.w3.org/2000/svg" viewBox="0 0 525 525">
  <g id="_Ñëîé_1" data-name="Ñëîé 1">
    <g>
      <path d="M262.5,525c-70.12,0-136.04-27.31-185.62-76.89C27.31,398.54,0,332.62,0,262.5S27.31,126.46,76.88,76.88C126.46,27.31,192.39,0,262.5,0s136.04,27.31,185.62,76.88c49.58,49.58,76.88,115.5,76.88,185.62s-27.31,136.04-76.88,185.62c-49.58,49.58-115.5,76.89-185.62,76.89ZM262.5,21.19c-133.06,0-241.31,108.25-241.31,241.31s108.25,241.31,241.31,241.31,241.31-108.25,241.31-241.31S395.56,21.19,262.5,21.19Z"/>
      <path d="M329,143.02c7.47,0,14.67.97,21.59,2.91,6.92,1.94,13.42,4.71,19.5,8.29,6.08,3.59,11.58,7.87,16.51,12.85,4.93,4.98,9.19,10.51,12.78,16.59,3.59,6.08,6.35,12.6,8.29,19.58,1.94,6.97,2.91,14.2,2.91,21.67s-.97,14.85-2.91,21.82c-1.94,6.97-4.71,13.48-8.29,19.5-3.59,6.03-7.85,11.51-12.78,16.44-4.93,4.93-10.44,9.17-16.51,12.7-6.08,3.54-12.58,6.28-19.5,8.22-6.93,1.94-14.12,2.91-21.59,2.91v-30.49c7.07,0,13.72-1.35,19.95-4.03,6.23-2.69,11.66-6.35,16.29-10.98s8.27-10.06,10.91-16.29c2.64-6.23,3.96-12.83,3.96-19.8s-1.32-13.7-3.96-19.88c-2.64-6.18-6.28-11.58-10.91-16.21s-10.06-8.29-16.29-10.98c-6.23-2.69-12.88-4.03-19.95-4.03s-13.73,1.34-19.95,4.03c-6.23,2.69-11.68,6.35-16.36,10.98-4.68,4.63-8.37,10.04-11.06,16.21-2.69,6.18-4.03,12.8-4.03,19.88v157.06h-30.19v-157.06c0-7.07-1.34-13.7-4.03-19.88-2.69-6.18-6.35-11.58-10.98-16.21s-10.06-8.29-16.29-10.98c-6.23-2.69-12.83-4.03-19.8-4.03s-13.7,1.34-19.88,4.03c-6.18,2.69-11.58,6.35-16.21,10.98s-8.29,10.04-10.98,16.21c-2.69,6.18-4.03,12.8-4.03,19.88s1.34,13.58,4.03,19.8c2.69,6.23,6.3,11.66,10.83,16.29,4.53,4.63,9.86,8.29,15.99,10.98,6.13,2.69,12.63,4.03,19.5,4.03v30.49c-11.06,0-21.52-2.12-31.38-6.35-9.86-4.23-18.48-10.04-25.85-17.41-7.37-7.37-13.2-16.01-17.48-25.93-4.28-9.91-6.43-20.55-6.43-31.91s2.14-21.87,6.43-31.83c4.28-9.96,10.14-18.65,17.56-26.08,7.42-7.42,16.11-13.27,26.08-17.56,9.96-4.28,20.57-6.43,31.83-6.43,6.77,0,13.35.82,19.73,2.47,6.37,1.64,12.4,3.96,18.08,6.95,5.68,2.99,10.91,6.63,15.69,10.91,4.78,4.28,9.02,9.02,12.7,14.2,3.78-5.18,8.09-9.91,12.93-14.2,4.83-4.28,10.09-7.92,15.77-10.91,5.68-2.99,11.71-5.31,18.08-6.95,6.37-1.64,12.95-2.47,19.73-2.47Z"/>
    </g>
  </g>
</svg>