<?xml version="1.0" encoding="UTF-8"?>
<svg id="Layer_2" data-name="Layer 2" xmlns="http://www.w3.org/2000/svg" viewBox="0 0 525 525">
  <g id="_Ñëîé_1" data-name="Ñëîé 1">
    <g>
      <path d="M262.5,525c-70.12,0-136.04-27.31-185.62-76.89C27.31,398.54,0,332.62,0,262.5S27.31,126.47,76.88,76.89C126.47,27.31,192.39,0,262.5,0s136.04,27.31,185.62,76.89c49.58,49.58,76.88,115.5,76.88,185.62s-27.31,136.04-76.88,185.62c-49.58,49.58-115.5,76.89-185.62,76.89ZM262.5,21.19c-133.06,0-241.31,108.25-241.31,241.31s108.25,241.31,241.31,241.31,241.31-108.25,241.31-241.31S395.56,21.19,262.5,21.19Z"/>
      <path d="M227.01,390.42v-30.04h22.12c.6,0,1.49-.05,2.69-.15,1.2-.1,2.56-.45,4.11-1.05,1.54-.6,3.19-1.52,4.93-2.76,1.74-1.25,3.46-3.01,5.16-5.31l27.2-36.31c-4.78-7.47-8.67-15.54-11.66-24.21-2.99-8.67-4.48-17.88-4.48-27.65v-76.51c0-2.79-.5-5.45-1.49-8-1-2.54-2.39-4.73-4.18-6.58-1.79-1.84-3.91-3.31-6.35-4.41-2.44-1.1-5.06-1.64-7.85-1.64-2.39,0-5.08.7-8.07,2.09-2.99,1.4-6.2,4.03-9.64,7.92-3.44,3.89-7.02,9.22-10.76,15.99-3.74,6.78-7.6,15.54-11.58,26.3-.6,1.1-1.02,2.09-1.27,2.99-.25.9-.47,1.59-.67,2.09-2.19,4.98-4.14,10.39-5.83,16.21-1.7,5.83-3.11,12.8-4.26,20.92-1.15,8.12-2.02,17.68-2.62,28.69-.6,11.01-.9,24.13-.9,39.38h-31.23c0-17.34-.65-32.38-1.94-45.13-1.3-12.75-2.76-23.39-4.41-31.91-1.64-8.52-3.19-15.04-4.63-19.58-1.45-4.53-2.37-7.25-2.76-8.14-.1-.1-.15-.2-.15-.3v-.15c-2.49-6.87-5.03-13.35-7.62-19.43-1.1-2.59-2.24-5.2-3.44-7.85-1.2-2.64-2.42-5.13-3.66-7.47-1.25-2.34-2.49-4.46-3.74-6.35-1.25-1.89-2.47-3.39-3.66-4.48-1.69-1.99-3.26-3.74-4.71-5.23-1.45-1.49-2.91-2.71-4.41-3.66-1.49-.95-3.11-1.67-4.86-2.17-1.74-.5-3.81-.75-6.2-.75-2.99,0-5.68.5-8.07,1.49l-12.1-27.95c3.29-1.49,6.6-2.66,9.94-3.51,3.34-.85,6.75-1.27,10.24-1.27,6.08,0,11.36.75,15.84,2.24s8.44,3.41,11.88,5.75c3.44,2.34,6.4,4.86,8.89,7.55,2.49,2.69,4.73,5.23,6.72,7.62,2.49,2.59,5.23,6.33,8.22,11.21,2.59,4.18,5.6,9.89,9.04,17.11,3.44,7.22,7.15,16.51,11.13,27.87,1.49-4.18,3.29-9.06,5.38-14.65,2.09-5.58,4.61-11.31,7.55-17.19,2.94-5.88,6.3-11.66,10.09-17.34,3.78-5.68,8.07-10.76,12.85-15.24,4.78-4.48,10.11-8.09,15.99-10.83,5.88-2.74,12.35-4.11,19.43-4.11s13.7,1.37,19.88,4.11c6.18,2.74,11.58,6.48,16.21,11.21,4.63,4.73,8.29,10.24,10.98,16.51,2.69,6.28,4.03,12.95,4.03,20.03v76.51c0,8.57,1.69,16.64,5.08,24.21,2.79-3.68,5.6-7.32,8.44-10.91,2.84-3.59,5.16-6.37,6.95-8.37,6.18-6.58,13.2-11.75,21.07-15.54,7.87-3.79,16.19-5.68,24.96-5.68,7.77,0,15.07,1.52,21.89,4.56,6.82,3.04,12.78,7.17,17.86,12.4,5.08,5.23,9.09,11.28,12.03,18.16,2.94,6.87,4.41,14.2,4.41,21.97s-1.47,14.92-4.41,21.74c-2.94,6.82-6.95,12.78-12.03,17.86-5.08,5.08-11.04,9.12-17.86,12.1-6.83,2.99-14.12,4.48-21.89,4.48-10.56,0-21.02-1.94-31.38-5.83-10.36-3.89-19.98-9.41-28.84-16.59l-24.36,31.98c-3.39,4.48-6.9,8.09-10.54,10.83-3.64,2.74-7.25,4.86-10.83,6.35-3.59,1.49-7.05,2.49-10.39,2.99-3.34.5-6.35.75-9.04.75h-22.42ZM332.96,312.56c6.08,5.38,12.78,9.37,20.1,11.96,7.32,2.59,14.57,3.89,21.74,3.89,3.49,0,6.8-.62,9.94-1.87,3.14-1.24,5.88-2.94,8.22-5.08,2.34-2.14,4.18-4.73,5.53-7.77,1.34-3.04,2.02-6.35,2.02-9.94s-.67-6.77-2.02-9.86c-1.35-3.09-3.19-5.78-5.53-8.07-2.34-2.29-5.08-4.11-8.22-5.45-3.14-1.34-6.45-2.02-9.94-2.02-5.68,0-10.49,1.12-14.42,3.36-3.94,2.24-7.1,4.66-9.49,7.25-.8.9-1.87,2.19-3.21,3.89-1.34,1.7-2.82,3.61-4.41,5.75-1.6,2.14-3.29,4.41-5.08,6.8-1.79,2.39-3.54,4.78-5.23,7.17Z"/>
    </g>
  </g>
</svg>