<?xml version="1.0" encoding="UTF-8"?>
<svg id="Layer_2" data-name="Layer 2" xmlns="http://www.w3.org/2000/svg" viewBox="0 0 525 525">
  <g id="_Ñëîé_1" data-name="Ñëîé 1">
    <g>
      <path d="M262.5,525c-70.12,0-136.04-27.31-185.62-76.88C27.31,398.54,0,332.62,0,262.5S27.31,126.47,76.89,76.88C126.47,27.31,192.39,0,262.5,0s136.04,27.31,185.62,76.88c49.58,49.58,76.89,115.5,76.89,185.62s-27.31,136.04-76.89,185.62c-49.58,49.58-115.5,76.88-185.62,76.88ZM262.5,21.19c-133.06,0-241.31,108.25-241.31,241.31s108.25,241.31,241.31,241.31,241.31-108.25,241.31-241.31S395.56,21.19,262.5,21.19Z"/>
      <path d="M244.79,247.86c-1.79,7.27-4.76,14-8.89,20.17-4.14,6.18-9.09,11.53-14.87,16.06-5.78,4.53-12.16,8.07-19.13,10.61-6.97,2.54-14.25,3.81-21.82,3.81-9.96,0-19.03-1.89-27.2-5.68-8.17-3.78-15.17-8.82-21-15.09-5.83-6.28-10.34-13.42-13.52-21.44-3.19-8.02-4.78-16.26-4.78-24.73,0-7.17,1.17-14.25,3.51-21.22,2.34-6.97,6.05-13.6,11.13-19.88,6.58-9.46,14.42-17.48,23.54-24.06,9.12-6.58,18.93-12,29.44-16.29,10.51-4.28,21.42-7.6,32.73-9.94,11.31-2.34,22.44-3.96,33.4-4.86,6.87-.6,13.75-.9,20.62-.9,24.01,0,46.95,3.64,68.82,10.91,21.87,7.27,42.22,18.28,61.05,33.03l-18.83,24.21c-16.44-13.15-34.07-22.69-52.9-28.62-18.83-5.93-38.31-8.89-58.43-8.89s-38.36,2.49-57.68,7.47c5.88,2.99,11.08,6.6,15.62,10.83,4.53,4.24,8.37,8.94,11.51,14.12,3.14,5.18,5.5,10.71,7.1,16.59,1.59,5.88,2.39,11.86,2.39,17.93,0,5.38-.6,10.66-1.79,15.84ZM280.51,276.85c1.79-7.17,4.73-13.82,8.82-19.95,4.08-6.13,8.94-11.43,14.57-15.92,5.63-4.48,11.9-8,18.83-10.54,6.92-2.54,14.12-3.81,21.59-3.81h.9c9.96.1,19.03,2.04,27.2,5.83,8.17,3.79,15.14,8.77,20.92,14.94,5.78,6.18,10.24,13.25,13.38,21.22,3.14,7.97,4.71,16.19,4.71,24.66,0,7.07-1.15,14.1-3.44,21.07-2.29,6.97-5.93,13.6-10.91,19.88-6.58,9.47-14.45,17.48-23.61,24.06-9.17,6.58-19,12.03-29.51,16.36-10.51,4.33-21.42,7.67-32.73,10.01-11.31,2.34-22.39,4.01-33.25,5.01-6.87.6-13.65.9-20.32.9-24.11,0-47.15-3.69-69.12-11.06-21.97-7.37-42.42-18.43-61.35-33.18l18.83-23.91c8.17,6.48,16.71,12.08,25.63,16.81,8.92,4.73,18.08,8.62,27.5,11.66,9.41,3.04,19,5.31,28.77,6.8,9.76,1.49,19.68,2.24,29.74,2.24s19.3-.65,28.92-1.94c9.61-1.29,19.25-3.19,28.92-5.68-5.88-2.99-11.11-6.62-15.69-10.91-4.58-4.28-8.44-8.99-11.58-14.12-3.14-5.13-5.53-10.63-7.17-16.51-1.64-5.88-2.47-11.85-2.47-17.93,0-5.48.65-10.81,1.94-15.99ZM179.64,196.3c-4.98,0-9.61.97-13.9,2.91-4.28,1.94-8.02,4.56-11.21,7.85-3.19,3.29-5.7,7.12-7.55,11.51-1.84,4.38-2.76,8.97-2.76,13.75s1,9.62,2.99,13.9c1.99,4.29,4.68,8,8.07,11.13,3.39,3.14,7.25,5.6,11.58,7.4,4.33,1.79,8.89,2.69,13.67,2.69s9.61-.95,13.9-2.84c4.28-1.89,8.02-4.43,11.21-7.62,3.19-3.19,5.68-6.92,7.47-11.21,1.79-4.28,2.69-8.82,2.69-13.6,0-5.08-1-9.79-2.99-14.12-1.99-4.33-4.63-8.12-7.92-11.36-3.29-3.24-7.12-5.78-11.51-7.62-4.38-1.84-8.97-2.76-13.75-2.76ZM344.47,257.27c-4.98,0-9.61.97-13.9,2.91-4.28,1.94-8.02,4.56-11.21,7.85-3.19,3.29-5.7,7.12-7.55,11.51-1.84,4.38-2.76,8.97-2.76,13.75s1,9.62,2.99,13.9c1.99,4.29,4.68,8,8.07,11.13,3.39,3.14,7.25,5.6,11.58,7.4s8.89,2.69,13.67,2.69,9.61-.95,13.9-2.84c4.28-1.89,8.02-4.43,11.21-7.62,3.19-3.19,5.68-6.92,7.47-11.21,1.79-4.28,2.69-8.82,2.69-13.6,0-5.08-1-9.79-2.99-14.12-1.99-4.33-4.63-8.12-7.92-11.36-3.29-3.24-7.12-5.78-11.51-7.62-4.38-1.84-8.97-2.76-13.75-2.76Z"/>
    </g>
  </g>
</svg>