<?xml version="1.0" encoding="UTF-8"?>
<svg id="Layer_2" data-name="Layer 2" xmlns="http://www.w3.org/2000/svg" viewBox="0 0 525 525">
  <g id="_Ñëîé_1" data-name="Ñëîé 1">
    <g>
      <path d="M262.5,525c-70.12,0-136.04-27.31-185.62-76.88C27.31,398.54,0,332.62,0,262.5S27.31,126.46,76.88,76.88C126.46,27.31,192.39,0,262.5,0s136.04,27.31,185.62,76.88c49.58,49.58,76.88,115.5,76.88,185.62s-27.31,136.04-76.88,185.62c-49.58,49.58-115.5,76.88-185.62,76.88ZM262.5,21.19c-133.06,0-241.31,108.25-241.31,241.31s108.25,241.31,241.31,241.31,241.31-108.25,241.31-241.31S395.56,21.19,262.5,21.19Z"/>
      <path d="M355.75,359.56l29.14,9.56c-1.79,5.68-4.43,10.76-7.92,15.24-3.49,4.48-7.5,8.29-12.03,11.43-4.53,3.14-9.47,5.53-14.79,7.17-5.33,1.64-10.74,2.47-16.21,2.47-3.99,0-7.92-.42-11.81-1.27-3.89-.85-7.72-2.22-11.51-4.11-4.68-2.29-8.82-5.18-12.4-8.67-3.59-3.49-6.65-7.32-9.19-11.51s-4.46-8.64-5.75-13.38c-1.3-4.73-1.94-9.59-1.94-14.57,0-3.99.42-7.92,1.27-11.81.85-3.89,2.22-7.72,4.11-11.51l41.54-105.06c1.79-3.59,3.11-7.22,3.96-10.91.85-3.68,1.27-7.42,1.27-11.21,0-5.98-1.02-11.78-3.06-17.41-2.04-5.63-4.93-10.71-8.67-15.24-3.74-4.53-8.25-8.37-13.52-11.51-5.28-3.14-11.11-5.25-17.48-6.35-1.4-.2-2.72-.35-3.96-.45-1.25-.1-2.57-.15-3.96-.15-6.87,0-13.4,1.32-19.58,3.96-6.18,2.64-11.61,6.25-16.29,10.83-4.68,4.58-8.42,9.96-11.21,16.14-2.79,6.18-4.18,12.8-4.18,19.88,0,1.1.27,3.11.82,6.05.55,2.94,1.29,6.55,2.24,10.83.95,4.28,2.07,9.12,3.36,14.5,1.29,5.38,2.66,11.04,4.11,16.96,1.44,5.93,2.94,12.06,4.48,18.38,1.54,6.33,3.11,12.53,4.71,18.61.5,1.99.85,4.09,1.05,6.28.2,2.19.3,4.24.3,6.13,0,8.07-1.64,15.47-4.93,22.19s-7.62,12.55-13,17.48c-5.38,4.93-11.56,8.77-18.53,11.51-6.97,2.74-14.1,4.11-21.37,4.11-6.87,0-13.7-1.32-20.47-3.96-6.78-2.64-13-6.95-18.68-12.93-5.38-5.68-9.32-11.78-11.81-18.31-2.49-6.52-3.74-13.12-3.74-19.8,0-7.27,1.37-14.32,4.11-21.15,2.74-6.82,6.58-12.9,11.51-18.23,4.93-5.33,10.83-9.59,17.71-12.78,6.87-3.19,14.4-4.78,22.57-4.78,2.09,0,4.23.13,6.43.37,2.19.25,4.43.62,6.72,1.12-2.29-9.16-4.18-17.41-5.68-24.73-1.49-7.32-2.24-14.27-2.24-20.85,0-6.18.77-12.2,2.32-18.08,1.54-5.88,4.11-12.1,7.7-18.68,3.29-5.98,7.27-11.43,11.96-16.36,4.68-4.93,9.86-9.19,15.54-12.78s11.73-6.45,18.16-8.59c6.43-2.14,13.02-3.46,19.8-3.96.99-.1,1.94-.15,2.84-.15h2.84c11.56,0,22.32,2.29,32.28,6.87,9.96,4.58,18.61,10.71,25.93,18.38,7.32,7.67,13.08,16.51,17.26,26.53,4.18,10.01,6.28,20.4,6.28,31.16,0,5.68-.65,11.38-1.94,17.11-1.3,5.73-3.29,11.43-5.98,17.11l-41.99,105.51c-1.89,3.69-2.84,7.27-2.84,10.76,0,3.19.67,6.13,2.02,8.82,1.34,2.69,3.14,5.03,5.38,7.02,2.24,1.99,4.81,3.54,7.7,4.63,2.89,1.1,5.83,1.64,8.82,1.64,4.18,0,8.22-1.2,12.1-3.59,3.89-2.39,6.67-6.38,8.37-11.96ZM196.6,323.85c3.98,0,7.55-.75,10.69-2.24,3.14-1.49,5.8-3.44,8-5.83,2.19-2.39,3.86-5.13,5.01-8.22,1.14-3.09,1.72-6.23,1.72-9.41s-.52-6.15-1.57-9.19c-1.05-3.04-2.62-5.75-4.71-8.14-2.09-2.39-4.73-4.33-7.92-5.83-3.19-1.49-6.93-2.24-11.21-2.24s-7.87.75-11.06,2.24c-3.19,1.49-5.85,3.46-8,5.9-2.14,2.44-3.76,5.21-4.86,8.29-1.1,3.09-1.64,6.28-1.64,9.56s.52,6.28,1.57,9.27c1.05,2.99,2.62,5.66,4.71,8,2.09,2.34,4.73,4.24,7.92,5.68,3.19,1.45,6.97,2.17,11.36,2.17Z"/>
    </g>
  </g>
</svg>