<?xml version="1.0" encoding="UTF-8"?>
<svg id="Layer_2" data-name="Layer 2" xmlns="http://www.w3.org/2000/svg" viewBox="0 0 525 525">
  <g id="_Ñëîé_1" data-name="Ñëîé 1">
    <g>
      <path d="M262.5,525c-70.12,0-136.04-27.31-185.62-76.88C27.31,398.54,0,332.62,0,262.5S27.31,126.47,76.89,76.88C126.47,27.31,192.39,0,262.5,0s136.04,27.31,185.62,76.88c49.58,49.58,76.89,115.5,76.89,185.62s-27.31,136.04-76.89,185.62c-49.58,49.58-115.5,76.88-185.62,76.88ZM262.5,21.19c-133.06,0-241.31,108.25-241.31,241.31s108.25,241.31,241.31,241.31,241.31-108.25,241.31-241.31S395.56,21.19,262.5,21.19Z"/>
      <path d="M333.26,280.29h67.7v30.19h-113.58v-30.49h1.05c4.48-2.39,8.59-5.33,12.33-8.82,3.74-3.49,6.92-7.37,9.56-11.66,2.64-4.28,4.68-8.92,6.13-13.9,1.44-4.98,2.17-10.21,2.17-15.69,0-7.67-1.49-14.92-4.48-21.74-2.99-6.82-7.02-12.78-12.1-17.86s-11.04-9.12-17.86-12.1c-6.83-2.99-14.12-4.48-21.89-4.48s-14.92,1.49-21.74,4.48c-6.83,2.99-12.78,7.02-17.86,12.1s-9.12,11.04-12.1,17.86c-2.99,6.83-4.48,14.07-4.48,21.74,0,5.48.75,10.71,2.24,15.69,1.49,4.98,3.59,9.62,6.28,13.9,2.69,4.28,5.9,8.17,9.64,11.66,3.74,3.49,7.85,6.43,12.33,8.82h.75v30.49h-113.28v-30.19h67.4c-5.08-7.37-8.99-15.24-11.73-23.61-2.74-8.37-4.11-17.28-4.11-26.75,0-7.97,1.05-15.64,3.14-23.01,2.09-7.37,5.01-14.27,8.74-20.7,3.74-6.43,8.24-12.28,13.52-17.56,5.28-5.28,11.13-9.79,17.56-13.52,6.43-3.74,13.32-6.65,20.7-8.74,7.37-2.09,15.04-3.14,23.01-3.14s15.81,1.05,23.24,3.14c7.42,2.09,14.35,5.01,20.77,8.74,6.43,3.74,12.28,8.25,17.56,13.52,5.28,5.28,9.79,11.13,13.52,17.56,3.74,6.43,6.62,13.33,8.67,20.7,2.04,7.37,3.06,15.04,3.06,23.01,0,9.47-1.34,18.38-4.03,26.75-2.69,8.37-6.63,16.24-11.81,23.61ZM124.04,381.76v-30.49h276.91v30.49H124.04Z"/>
    </g>
  </g>
</svg>