<?xml version="1.0" encoding="UTF-8"?>
<svg id="Layer_2" data-name="Layer 2" xmlns="http://www.w3.org/2000/svg" viewBox="0 0 525 525">
  <g id="_Ñëîé_1" data-name="Ñëîé 1">
    <g>
      <path d="M262.5,525c-70.12,0-136.04-27.31-185.62-76.89C27.31,398.54,0,332.62,0,262.5S27.31,126.47,76.89,76.89C126.47,27.31,192.39,0,262.5,0s136.04,27.31,185.62,76.89c49.58,49.58,76.89,115.5,76.89,185.62s-27.31,136.04-76.89,185.62c-49.58,49.58-115.5,76.89-185.62,76.89ZM262.5,21.19c-133.06,0-241.31,108.25-241.31,241.31s108.25,241.31,241.31,241.31,241.31-108.25,241.31-241.31S395.56,21.19,262.5,21.19Z"/>
      <path d="M370.02,247.41v30.19h-45.58c1.69,17.24,5.9,33.7,12.63,49.39,6.72,15.69,15.72,30.11,26.97,43.26l-23.16,19.88c-13.85-15.74-24.71-33.18-32.58-52.3-7.87-19.13-12.65-39.2-14.35-60.22h-62.91c-1.69,21.02-6.55,41.17-14.57,60.45-8.02,19.28-18.95,36.89-32.8,52.83l-23.16-20.32c11.46-13.05,20.57-27.5,27.35-43.34,6.77-15.84,11.01-32.38,12.7-49.61h-45.58v-30.19h45.58c-1.69-17.34-5.93-33.9-12.7-49.69-6.78-15.79-15.89-30.21-27.35-43.26l22.72-20.32c14.05,15.94,25.11,33.55,33.18,52.83,8.07,19.28,12.95,39.43,14.65,60.45h62.91c1.69-21.02,6.55-41.17,14.57-60.45,8.02-19.28,19.05-36.89,33.1-52.83l22.86,20.32c-11.46,13.05-20.57,27.47-27.35,43.26-6.78,15.79-11.01,32.35-12.7,49.69h45.58Z"/>
    </g>
  </g>
</svg>