<?xml version="1.0" encoding="UTF-8"?>
<svg id="Layer_2" data-name="Layer 2" xmlns="http://www.w3.org/2000/svg" viewBox="0 0 525 525">
  <g id="_Ñëîé_1" data-name="Ñëîé 1">
    <g>
      <path d="M262.5,525c-70.12,0-136.04-27.31-185.62-76.89C27.31,398.54,0,332.62,0,262.5S27.31,126.47,76.88,76.89C126.47,27.31,192.39,0,262.5,0s136.04,27.31,185.62,76.89c49.58,49.58,76.88,115.5,76.88,185.62s-27.31,136.04-76.88,185.62c-49.58,49.58-115.5,76.89-185.62,76.89ZM262.5,21.19c-133.06,0-241.31,108.25-241.31,241.31s108.25,241.31,241.31,241.31,241.31-108.25,241.31-241.31S395.56,21.19,262.5,21.19Z"/>
      <path d="M385.49,139.66v132.7h-30.19v-80.4l-116.41,116.12,34.82,35.27-21.67,21.67-35.27-35.27-55.59,55.59-21.67-21.37,55.59-55.89-34.97-34.97,21.67-21.67,34.97,34.97,116.56-116.56h-80.55v-30.19h132.7Z"/>
    </g>
  </g>
</svg>