<?xml version="1.0" encoding="UTF-8"?>
<svg id="Layer_2" data-name="Layer 2" xmlns="http://www.w3.org/2000/svg" viewBox="0 0 525 525">
  <g id="_Ñëîé_1" data-name="Ñëîé 1">
    <g>
      <path d="M262.5,525c-70.12,0-136.04-27.31-185.62-76.88C27.31,398.54,0,332.62,0,262.5S27.31,126.47,76.89,76.88C126.47,27.31,192.39,0,262.5,0s136.04,27.31,185.62,76.88c49.58,49.58,76.89,115.5,76.89,185.62s-27.31,136.04-76.89,185.62c-49.58,49.58-115.5,76.88-185.62,76.88ZM262.5,21.19c-133.06,0-241.31,108.25-241.31,241.31s108.25,241.31,241.31,241.31,241.31-108.25,241.31-241.31S395.56,21.19,262.5,21.19Z"/>
      <path d="M367.63,330.87l41.54,41.1-41.54,41.25-10.61-11.06,15.09-15.39h-19.88c-6.97,0-13.57-1.3-19.8-3.89-6.23-2.59-11.66-6.15-16.29-10.69-4.63-4.53-8.29-9.84-10.98-15.92-2.69-6.08-4.03-12.6-4.03-19.58h.3v-173.95c0-2.69-.52-5.25-1.57-7.7-1.05-2.44-2.52-4.58-4.41-6.43-1.89-1.84-4.09-3.31-6.58-4.41-2.49-1.09-5.13-1.64-7.92-1.64s-5.58.55-8.07,1.64c-2.49,1.1-4.68,2.57-6.58,4.41-1.89,1.84-3.36,3.99-4.41,6.43-1.05,2.44-1.57,5.01-1.57,7.7v184.56h-30.19v-184.56c0-2.69-.55-5.25-1.64-7.7-1.1-2.44-2.62-4.58-4.56-6.43-1.94-1.84-4.18-3.31-6.72-4.41-2.54-1.09-5.21-1.64-8-1.64s-5.41.55-7.85,1.64c-2.44,1.1-4.58,2.57-6.43,4.41-1.84,1.84-3.29,3.99-4.33,6.43-1.05,2.44-1.57,5.01-1.57,7.7v184.56h-30.19v-184.56c-.2-2.69-.87-5.25-2.02-7.7-1.15-2.44-2.67-4.58-4.56-6.43-1.89-1.84-4.06-3.31-6.5-4.41-2.44-1.09-5.06-1.64-7.85-1.64-1.69,0-3.26.18-4.71.52-1.44.35-2.82.77-4.11,1.27l-13.3-27.5c6.77-3.39,14.15-5.08,22.12-5.08,6.97,0,13.5,1.27,19.58,3.81,6.08,2.54,11.41,6.15,15.99,10.83,4.68-4.68,10.09-8.29,16.21-10.83s12.63-3.81,19.5-3.81,13.57,1.27,19.8,3.81c6.23,2.54,11.63,6.15,16.21,10.83,4.68-4.68,10.04-8.29,16.06-10.83,6.03-2.54,12.58-3.81,19.65-3.81s13.67,1.32,19.8,3.96c6.13,2.64,11.46,6.28,15.99,10.91,4.53,4.63,8.09,10.04,10.68,16.21,2.59,6.18,3.89,12.8,3.89,19.88v173.95c0,2.89.57,5.53,1.72,7.92,1.14,2.39,2.69,4.48,4.63,6.28,1.94,1.79,4.16,3.19,6.65,4.18,2.49.99,5.13,1.49,7.92,1.49h19.88l-15.09-15.09,10.61-10.61Z"/>
    </g>
  </g>
</svg>