<?xml version="1.0" encoding="UTF-8"?>
<svg id="Layer_2" data-name="Layer 2" xmlns="http://www.w3.org/2000/svg" viewBox="0 0 525 525">
  <g id="_Ñëîé_1" data-name="Ñëîé 1">
    <g>
      <path d="M262.5,525c-70.12,0-136.04-27.31-185.62-76.88C27.31,398.54,0,332.62,0,262.5S27.31,126.46,76.88,76.88C126.46,27.31,192.39,0,262.5,0s136.04,27.31,185.62,76.88c49.58,49.58,76.88,115.5,76.88,185.62s-27.31,136.04-76.88,185.62c-49.58,49.58-115.5,76.88-185.62,76.88ZM262.5,21.19c-133.06,0-241.31,108.25-241.31,241.31s108.25,241.31,241.31,241.31,241.31-108.25,241.31-241.31S395.56,21.19,262.5,21.19Z"/>
      <path d="M331.02,157c3.98-8.07,8.87-14.42,14.65-19.05,5.78-4.63,12.13-8.14,19.05-10.54,6.92-2.39,14.3-3.89,22.12-4.48,7.82-.6,15.81-.9,23.99-.9v30.49c-9.27,0-16.91.35-22.94,1.05-6.03.7-10.96,1.79-14.79,3.29-3.84,1.49-6.83,3.39-8.97,5.68-2.14,2.29-3.96,4.98-5.45,8.07-2.79,4.88-5.53,9.76-8.22,14.65-2.69,4.88-5.63,9.66-8.82,14.35-3.19,4.68-6.85,9.17-10.98,13.45-4.14,4.28-9.04,8.27-14.72,11.96,6.58,4.39,12.58,9.47,18.01,15.24,5.43,5.78,10.04,12.13,13.82,19.05,3.78,6.93,6.72,14.3,8.82,22.12,2.09,7.82,3.14,15.97,3.14,24.43,0,13.45-2.57,26.05-7.7,37.81-5.13,11.76-12.1,22.04-20.92,30.86-8.82,8.82-19.13,15.77-30.93,20.85s-24.43,7.62-37.88,7.62-25.9-2.54-37.66-7.62c-11.76-5.08-22.04-12.03-30.86-20.85-8.82-8.82-15.77-19.1-20.85-30.86-5.08-11.75-7.62-24.36-7.62-37.81,0-8.47,1.02-16.61,3.06-24.43,2.04-7.82,4.98-15.19,8.82-22.12,3.83-6.92,8.44-13.27,13.82-19.05,5.38-5.78,11.36-10.86,17.93-15.24-5.68-3.68-10.69-7.74-15.02-12.18-4.33-4.43-8.17-9.04-11.51-13.82-3.34-4.78-6.3-9.61-8.89-14.5-2.59-4.88-4.98-9.51-7.17-13.9-1.59-3.09-3.46-5.78-5.6-8.07-2.14-2.29-5.13-4.18-8.97-5.68-3.84-1.49-8.74-2.59-14.72-3.29-5.98-.7-13.6-1.05-22.86-1.05v-30.49c8.27,0,16.31.3,24.13.9,7.82.6,15.17,2.09,22.04,4.48s13.15,5.9,18.83,10.54,10.56,10.98,14.65,19.05c3.09,6.18,6.37,12.35,9.86,18.53,3.49,6.18,7.79,11.73,12.93,16.66,5.13,4.93,11.36,8.94,18.68,12.03,7.32,3.09,16.31,4.63,26.97,4.63s19.82-1.52,27.2-4.56c7.37-3.04,13.62-7.02,18.75-11.96,5.13-4.93,9.46-10.48,13-16.66,3.54-6.18,6.8-12.4,9.79-18.68ZM328.78,305.84c0-9.16-1.74-17.78-5.23-25.85-3.49-8.07-8.25-15.12-14.27-21.15-6.03-6.03-13.08-10.78-21.15-14.27-8.07-3.49-16.69-5.23-25.85-5.23s-17.76,1.74-25.78,5.23c-8.02,3.49-15.02,8.25-21,14.27-5.98,6.03-10.71,13.08-14.2,21.15-3.49,8.07-5.23,16.69-5.23,25.85s1.74,17.81,5.23,25.93c3.49,8.12,8.22,15.19,14.2,21.22,5.98,6.03,12.98,10.79,21,14.27,8.02,3.49,16.61,5.23,25.78,5.23s17.78-1.74,25.85-5.23c8.07-3.49,15.12-8.24,21.15-14.27,6.03-6.03,10.78-13.1,14.27-21.22,3.49-8.12,5.23-16.76,5.23-25.93Z"/>
    </g>
  </g>
</svg>