<?xml version="1.0" encoding="UTF-8"?>
<svg id="Layer_2" data-name="Layer 2" xmlns="http://www.w3.org/2000/svg" viewBox="0 0 525 525">
  <g id="_Ñëîé_1" data-name="Ñëîé 1">
    <g>
      <path d="M262.5,525c-70.12,0-136.04-27.31-185.62-76.88C27.31,398.54,0,332.62,0,262.5S27.31,126.46,76.88,76.88C126.46,27.31,192.39,0,262.5,0s136.04,27.31,185.62,76.88c49.58,49.58,76.88,115.5,76.88,185.62s-27.31,136.04-76.88,185.62c-49.58,49.58-115.5,76.88-185.62,76.88ZM262.5,21.19c-133.06,0-241.31,108.25-241.31,241.31s108.25,241.31,241.31,241.31,241.31-108.25,241.31-241.31S395.56,21.19,262.5,21.19Z"/>
      <path d="M402.15,173.81c.1,2.49.17,4.93.22,7.32.05,2.39.07,4.78.07,7.17,0,14.25-.85,27.97-2.54,41.17-1.7,13.2-4.03,25.76-7.02,37.66-2.99,11.91-6.55,23.14-10.69,33.7-4.14,10.56-8.64,20.23-13.52,28.99,4.78,7.37,9.46,13.82,14.05,19.35,4.58,5.53,8.79,10.19,12.63,13.97,3.83,3.78,7.07,6.75,9.71,8.89,2.64,2.14,4.36,3.51,5.16,4.11.1.1.2.15.3.15l.15.15-16.89,25.41c-.5-.3-2.02-1.4-4.56-3.29-2.54-1.89-5.78-4.63-9.71-8.22-3.94-3.59-8.37-8.05-13.3-13.38-4.93-5.33-10.09-11.63-15.47-18.9-5.28,7.27-10.44,13.62-15.47,19.05-5.03,5.43-9.54,9.99-13.52,13.67-4.68,4.28-9.12,7.97-13.3,11.06l-17.34-25.41c.5-.3,2.02-1.42,4.56-3.36,2.54-1.94,5.75-4.81,9.64-8.59,3.89-3.79,8.24-8.57,13.08-14.35,4.83-5.78,9.74-12.55,14.72-20.32-4.58-8.47-8.89-17.78-12.93-27.95s-7.57-21.19-10.61-33.1c-3.04-11.9-5.43-24.68-7.17-38.33-1.74-13.65-2.62-28.24-2.62-43.79v-6.05c0-2.04.05-4.06.15-6.05v-.3c-.2-3.29-.9-6.2-2.09-8.74s-2.76-4.68-4.71-6.43c-1.94-1.74-4.14-3.04-6.58-3.89-2.44-.85-4.91-1.27-7.4-1.27s-4.76.42-7.1,1.27c-2.34.85-4.46,2.09-6.35,3.74-1.89,1.64-3.46,3.76-4.71,6.35-1.25,2.59-1.97,5.58-2.17,8.97v184.11h-30.19v-184.11c0-3.29-.57-6.2-1.72-8.74-1.15-2.54-2.69-4.66-4.63-6.35-1.94-1.69-4.14-2.96-6.58-3.81-2.44-.85-4.91-1.27-7.4-1.27s-4.93.42-7.32,1.27c-2.39.85-4.53,2.09-6.43,3.74-1.89,1.64-3.49,3.74-4.78,6.28-1.3,2.54-2.04,5.51-2.24,8.89v184.11h-31.68v-184.11c0-2.89-.55-5.58-1.64-8.07-1.1-2.49-2.57-4.63-4.41-6.43-1.84-1.79-3.96-3.21-6.35-4.26-2.39-1.05-4.88-1.57-7.47-1.57-1.4,0-2.79.15-4.18.45-1.4.3-2.79.8-4.18,1.49l-13.3-27.65c7.27-3.39,14.59-5.08,21.97-5.08,6.47,0,12.78,1.25,18.9,3.74,6.13,2.49,11.73,6.28,16.81,11.36,5.08-5.08,10.69-8.84,16.81-11.28,6.13-2.44,12.43-3.66,18.9-3.66s12.95,1.25,19.13,3.74c6.18,2.49,11.81,6.23,16.89,11.21,5.08-5.08,10.69-8.84,16.81-11.28,6.13-2.44,12.38-3.66,18.75-3.66s12.95,1.25,19.13,3.74c6.18,2.49,11.71,6.23,16.59,11.21,5.28-5.18,11.01-8.97,17.19-11.36,6.18-2.39,12.4-3.59,18.68-3.59s12.78,1.2,18.9,3.59c6.13,2.39,11.56,5.8,16.29,10.24,4.73,4.43,8.57,9.76,11.51,15.99,2.94,6.23,4.46,13.13,4.56,20.7ZM330.42,187.56c0,11.06.52,21.59,1.57,31.61,1.05,10.01,2.51,19.53,4.41,28.54,1.89,9.02,4.08,17.51,6.58,25.48,2.49,7.97,5.18,15.44,8.07,22.42,2.89-6.97,5.58-14.4,8.07-22.27,2.49-7.87,4.66-16.24,6.5-25.11,1.84-8.87,3.29-18.26,4.33-28.17,1.05-9.91,1.57-20.4,1.57-31.46v-14.35c-.2-3.39-.92-6.35-2.17-8.89-1.25-2.54-2.82-4.63-4.71-6.28-1.89-1.64-4.01-2.89-6.35-3.74-2.34-.85-4.71-1.27-7.1-1.27s-4.98.47-7.47,1.42c-2.49.95-4.71,2.29-6.65,4.03-1.94,1.74-3.54,3.86-4.78,6.35-1.25,2.49-1.87,5.28-1.87,8.37v13.3Z"/>
    </g>
  </g>
</svg>